<mxfile host="app.diagrams.net" agent="Mozilla/5.0 (Windows NT 10.0; Win64; x64) AppleWebKit/537.36 (KHTML, like Gecko) Chrome/129.0.0.0 Safari/537.36 Edg/129.0.0.0" version="24.7.16">
  <diagram id="C5RBs43oDa-KdzZeNtuy" name="Page-1">
    <mxGraphModel dx="1710" dy="1927" grid="1" gridSize="10" guides="1" tooltips="1" connect="1" arrows="1" fold="1" page="1" pageScale="1" pageWidth="827" pageHeight="1169" math="0" shadow="0">
      <root>
        <mxCell id="WIyWlLk6GJQsqaUBKTNV-0" />
        <mxCell id="WIyWlLk6GJQsqaUBKTNV-1" parent="WIyWlLk6GJQsqaUBKTNV-0" />
        <mxCell id="vKs0wVmwzbP3PAjMGxUe-2" value="Pengguna" style="rounded=0;whiteSpace=wrap;html=1;" vertex="1" parent="WIyWlLk6GJQsqaUBKTNV-1">
          <mxGeometry x="300" y="135" width="90" height="30" as="geometry" />
        </mxCell>
        <mxCell id="vKs0wVmwzbP3PAjMGxUe-3" value="" style="endArrow=none;html=1;rounded=0;entryX=0;entryY=1;entryDx=0;entryDy=0;exitX=0.586;exitY=0.025;exitDx=0;exitDy=0;exitPerimeter=0;" edge="1" parent="WIyWlLk6GJQsqaUBKTNV-1" source="vKs0wVmwzbP3PAjMGxUe-2" target="vKs0wVmwzbP3PAjMGxUe-6">
          <mxGeometry width="50" height="50" relative="1" as="geometry">
            <mxPoint x="360" y="130" as="sourcePoint" />
            <mxPoint x="390" y="100" as="targetPoint" />
            <Array as="points" />
          </mxGeometry>
        </mxCell>
        <mxCell id="vKs0wVmwzbP3PAjMGxUe-4" value="" style="endArrow=none;html=1;rounded=0;exitX=0.5;exitY=0;exitDx=0;exitDy=0;" edge="1" parent="WIyWlLk6GJQsqaUBKTNV-1" source="vKs0wVmwzbP3PAjMGxUe-2" target="vKs0wVmwzbP3PAjMGxUe-5">
          <mxGeometry width="50" height="50" relative="1" as="geometry">
            <mxPoint x="350" y="130" as="sourcePoint" />
            <mxPoint x="350" y="90" as="targetPoint" />
          </mxGeometry>
        </mxCell>
        <mxCell id="vKs0wVmwzbP3PAjMGxUe-5" value="Nama" style="ellipse;whiteSpace=wrap;html=1;" vertex="1" parent="WIyWlLk6GJQsqaUBKTNV-1">
          <mxGeometry x="379" y="20" width="70" height="30" as="geometry" />
        </mxCell>
        <mxCell id="vKs0wVmwzbP3PAjMGxUe-6" value="&lt;u&gt;ID Pengguna&lt;/u&gt;" style="ellipse;whiteSpace=wrap;html=1;" vertex="1" parent="WIyWlLk6GJQsqaUBKTNV-1">
          <mxGeometry x="400" y="60" width="80" height="30" as="geometry" />
        </mxCell>
        <mxCell id="vKs0wVmwzbP3PAjMGxUe-7" value="" style="endArrow=none;html=1;rounded=0;exitX=0.5;exitY=0;exitDx=0;exitDy=0;" edge="1" parent="WIyWlLk6GJQsqaUBKTNV-1" source="vKs0wVmwzbP3PAjMGxUe-2" target="vKs0wVmwzbP3PAjMGxUe-8">
          <mxGeometry width="50" height="50" relative="1" as="geometry">
            <mxPoint x="320" y="90" as="sourcePoint" />
            <mxPoint x="340" y="130" as="targetPoint" />
          </mxGeometry>
        </mxCell>
        <mxCell id="vKs0wVmwzbP3PAjMGxUe-8" value="Email" style="ellipse;whiteSpace=wrap;html=1;" vertex="1" parent="WIyWlLk6GJQsqaUBKTNV-1">
          <mxGeometry x="320" y="40" width="60" height="30" as="geometry" />
        </mxCell>
        <mxCell id="vKs0wVmwzbP3PAjMGxUe-9" value="" style="endArrow=none;html=1;rounded=0;exitX=0.416;exitY=0.048;exitDx=0;exitDy=0;exitPerimeter=0;" edge="1" parent="WIyWlLk6GJQsqaUBKTNV-1" source="vKs0wVmwzbP3PAjMGxUe-2" target="vKs0wVmwzbP3PAjMGxUe-10">
          <mxGeometry width="50" height="50" relative="1" as="geometry">
            <mxPoint x="290" y="180" as="sourcePoint" />
            <mxPoint x="310" y="80" as="targetPoint" />
            <Array as="points" />
          </mxGeometry>
        </mxCell>
        <mxCell id="vKs0wVmwzbP3PAjMGxUe-10" value="Tipe Pengguna" style="ellipse;whiteSpace=wrap;html=1;" vertex="1" parent="WIyWlLk6GJQsqaUBKTNV-1">
          <mxGeometry x="250" y="10" width="90" height="30" as="geometry" />
        </mxCell>
        <mxCell id="vKs0wVmwzbP3PAjMGxUe-11" value="" style="endArrow=none;html=1;rounded=0;exitX=0.395;exitY=0.057;exitDx=0;exitDy=0;exitPerimeter=0;" edge="1" parent="WIyWlLk6GJQsqaUBKTNV-1" source="vKs0wVmwzbP3PAjMGxUe-2" target="vKs0wVmwzbP3PAjMGxUe-12">
          <mxGeometry width="50" height="50" relative="1" as="geometry">
            <mxPoint x="320" y="130" as="sourcePoint" />
            <mxPoint x="290" y="90" as="targetPoint" />
          </mxGeometry>
        </mxCell>
        <mxCell id="vKs0wVmwzbP3PAjMGxUe-12" value="Tanggal Daftar" style="ellipse;whiteSpace=wrap;html=1;" vertex="1" parent="WIyWlLk6GJQsqaUBKTNV-1">
          <mxGeometry x="220" y="50" width="80" height="30" as="geometry" />
        </mxCell>
        <mxCell id="vKs0wVmwzbP3PAjMGxUe-13" value="" style="endArrow=none;html=1;rounded=0;exitX=0.596;exitY=0.002;exitDx=0;exitDy=0;exitPerimeter=0;" edge="1" parent="WIyWlLk6GJQsqaUBKTNV-1" source="vKs0wVmwzbP3PAjMGxUe-10" target="vKs0wVmwzbP3PAjMGxUe-14">
          <mxGeometry width="50" height="50" relative="1" as="geometry">
            <mxPoint x="290" y="-10" as="sourcePoint" />
            <mxPoint x="330" y="-30" as="targetPoint" />
          </mxGeometry>
        </mxCell>
        <mxCell id="vKs0wVmwzbP3PAjMGxUe-14" value="Siswa" style="ellipse;whiteSpace=wrap;html=1;" vertex="1" parent="WIyWlLk6GJQsqaUBKTNV-1">
          <mxGeometry x="329" y="-60" width="61" height="30" as="geometry" />
        </mxCell>
        <mxCell id="vKs0wVmwzbP3PAjMGxUe-15" value="Guru" style="ellipse;whiteSpace=wrap;html=1;" vertex="1" parent="WIyWlLk6GJQsqaUBKTNV-1">
          <mxGeometry x="270" y="-80" width="60" height="30" as="geometry" />
        </mxCell>
        <mxCell id="vKs0wVmwzbP3PAjMGxUe-16" value="" style="endArrow=none;html=1;rounded=0;entryX=0.5;entryY=1;entryDx=0;entryDy=0;" edge="1" parent="WIyWlLk6GJQsqaUBKTNV-1" target="vKs0wVmwzbP3PAjMGxUe-15">
          <mxGeometry width="50" height="50" relative="1" as="geometry">
            <mxPoint x="300" y="10" as="sourcePoint" />
            <mxPoint x="290" y="-30" as="targetPoint" />
          </mxGeometry>
        </mxCell>
        <mxCell id="vKs0wVmwzbP3PAjMGxUe-18" value="" style="endArrow=none;html=1;rounded=0;" edge="1" parent="WIyWlLk6GJQsqaUBKTNV-1">
          <mxGeometry width="50" height="50" relative="1" as="geometry">
            <mxPoint x="290" y="10" as="sourcePoint" />
            <mxPoint x="270" y="-20" as="targetPoint" />
          </mxGeometry>
        </mxCell>
        <mxCell id="vKs0wVmwzbP3PAjMGxUe-19" value="Admin" style="ellipse;whiteSpace=wrap;html=1;" vertex="1" parent="WIyWlLk6GJQsqaUBKTNV-1">
          <mxGeometry x="230" y="-40" width="60" height="30" as="geometry" />
        </mxCell>
        <mxCell id="vKs0wVmwzbP3PAjMGxUe-20" value="" style="endArrow=none;html=1;rounded=0;" edge="1" parent="WIyWlLk6GJQsqaUBKTNV-1">
          <mxGeometry width="50" height="50" relative="1" as="geometry">
            <mxPoint x="390" y="150" as="sourcePoint" />
            <mxPoint x="480" y="150" as="targetPoint" />
          </mxGeometry>
        </mxCell>
        <mxCell id="vKs0wVmwzbP3PAjMGxUe-21" value="Mendaftar" style="rhombus;whiteSpace=wrap;html=1;" vertex="1" parent="WIyWlLk6GJQsqaUBKTNV-1">
          <mxGeometry x="480" y="110" width="70" height="80" as="geometry" />
        </mxCell>
        <mxCell id="vKs0wVmwzbP3PAjMGxUe-22" value="" style="endArrow=none;html=1;rounded=0;" edge="1" parent="WIyWlLk6GJQsqaUBKTNV-1">
          <mxGeometry width="50" height="50" relative="1" as="geometry">
            <mxPoint x="550" y="150" as="sourcePoint" />
            <mxPoint x="620" y="150" as="targetPoint" />
          </mxGeometry>
        </mxCell>
        <mxCell id="vKs0wVmwzbP3PAjMGxUe-23" value="Kelas" style="rounded=0;whiteSpace=wrap;html=1;" vertex="1" parent="WIyWlLk6GJQsqaUBKTNV-1">
          <mxGeometry x="620" y="135" width="80" height="30" as="geometry" />
        </mxCell>
        <mxCell id="vKs0wVmwzbP3PAjMGxUe-25" value="Guru" style="rounded=0;whiteSpace=wrap;html=1;" vertex="1" parent="WIyWlLk6GJQsqaUBKTNV-1">
          <mxGeometry x="620" y="-50" width="70" height="30" as="geometry" />
        </mxCell>
        <mxCell id="vKs0wVmwzbP3PAjMGxUe-27" value="Mengajar" style="rhombus;whiteSpace=wrap;html=1;" vertex="1" parent="WIyWlLk6GJQsqaUBKTNV-1">
          <mxGeometry x="620" y="25" width="70" height="60" as="geometry" />
        </mxCell>
        <mxCell id="vKs0wVmwzbP3PAjMGxUe-29" value="" style="endArrow=none;html=1;rounded=0;entryX=0.5;entryY=1;entryDx=0;entryDy=0;exitX=0.5;exitY=0;exitDx=0;exitDy=0;" edge="1" parent="WIyWlLk6GJQsqaUBKTNV-1" source="vKs0wVmwzbP3PAjMGxUe-27" target="vKs0wVmwzbP3PAjMGxUe-25">
          <mxGeometry width="50" height="50" relative="1" as="geometry">
            <mxPoint x="650" y="30" as="sourcePoint" />
            <mxPoint x="700" y="-20" as="targetPoint" />
          </mxGeometry>
        </mxCell>
        <mxCell id="vKs0wVmwzbP3PAjMGxUe-30" value="" style="endArrow=none;html=1;rounded=0;entryX=0.5;entryY=1;entryDx=0;entryDy=0;exitX=0.439;exitY=0.041;exitDx=0;exitDy=0;exitPerimeter=0;" edge="1" parent="WIyWlLk6GJQsqaUBKTNV-1" source="vKs0wVmwzbP3PAjMGxUe-23" target="vKs0wVmwzbP3PAjMGxUe-27">
          <mxGeometry width="50" height="50" relative="1" as="geometry">
            <mxPoint x="660" y="135" as="sourcePoint" />
            <mxPoint x="710" y="85" as="targetPoint" />
          </mxGeometry>
        </mxCell>
        <mxCell id="vKs0wVmwzbP3PAjMGxUe-31" value="" style="endArrow=none;html=1;rounded=0;entryX=0.689;entryY=0.011;entryDx=0;entryDy=0;entryPerimeter=0;" edge="1" parent="WIyWlLk6GJQsqaUBKTNV-1" target="vKs0wVmwzbP3PAjMGxUe-32">
          <mxGeometry width="50" height="50" relative="1" as="geometry">
            <mxPoint x="650" y="165" as="sourcePoint" />
            <mxPoint x="620" y="190" as="targetPoint" />
          </mxGeometry>
        </mxCell>
        <mxCell id="vKs0wVmwzbP3PAjMGxUe-32" value="&lt;u&gt;ID Kelas&lt;/u&gt;" style="ellipse;whiteSpace=wrap;html=1;" vertex="1" parent="WIyWlLk6GJQsqaUBKTNV-1">
          <mxGeometry x="540" y="180" width="60" height="30" as="geometry" />
        </mxCell>
        <mxCell id="vKs0wVmwzbP3PAjMGxUe-33" value="" style="endArrow=none;html=1;rounded=0;exitX=0.569;exitY=0.041;exitDx=0;exitDy=0;exitPerimeter=0;" edge="1" parent="WIyWlLk6GJQsqaUBKTNV-1" source="vKs0wVmwzbP3PAjMGxUe-34">
          <mxGeometry width="50" height="50" relative="1" as="geometry">
            <mxPoint x="630" y="210" as="sourcePoint" />
            <mxPoint x="650" y="165" as="targetPoint" />
          </mxGeometry>
        </mxCell>
        <mxCell id="vKs0wVmwzbP3PAjMGxUe-34" value="Nama Kelas" style="ellipse;whiteSpace=wrap;html=1;" vertex="1" parent="WIyWlLk6GJQsqaUBKTNV-1">
          <mxGeometry x="555" y="220" width="70" height="30" as="geometry" />
        </mxCell>
        <mxCell id="vKs0wVmwzbP3PAjMGxUe-35" value="" style="endArrow=none;html=1;rounded=0;exitX=0.286;exitY=0;exitDx=0;exitDy=0;exitPerimeter=0;" edge="1" parent="WIyWlLk6GJQsqaUBKTNV-1" source="vKs0wVmwzbP3PAjMGxUe-36">
          <mxGeometry width="50" height="50" relative="1" as="geometry">
            <mxPoint x="680" y="200" as="sourcePoint" />
            <mxPoint x="660" y="165" as="targetPoint" />
          </mxGeometry>
        </mxCell>
        <mxCell id="vKs0wVmwzbP3PAjMGxUe-36" value="Deskripsi" style="ellipse;whiteSpace=wrap;html=1;" vertex="1" parent="WIyWlLk6GJQsqaUBKTNV-1">
          <mxGeometry x="690" y="220" width="70" height="30" as="geometry" />
        </mxCell>
        <mxCell id="vKs0wVmwzbP3PAjMGxUe-37" value="" style="endArrow=none;html=1;rounded=0;exitX=0;exitY=0;exitDx=0;exitDy=0;" edge="1" parent="WIyWlLk6GJQsqaUBKTNV-1" source="vKs0wVmwzbP3PAjMGxUe-38">
          <mxGeometry width="50" height="50" relative="1" as="geometry">
            <mxPoint x="690" y="200" as="sourcePoint" />
            <mxPoint x="660" y="165" as="targetPoint" />
          </mxGeometry>
        </mxCell>
        <mxCell id="vKs0wVmwzbP3PAjMGxUe-38" value="ID Guru" style="ellipse;whiteSpace=wrap;html=1;" vertex="1" parent="WIyWlLk6GJQsqaUBKTNV-1">
          <mxGeometry x="695" y="180" width="70" height="30" as="geometry" />
        </mxCell>
        <mxCell id="vKs0wVmwzbP3PAjMGxUe-39" value="" style="endArrow=none;html=1;rounded=0;" edge="1" parent="WIyWlLk6GJQsqaUBKTNV-1">
          <mxGeometry width="50" height="50" relative="1" as="geometry">
            <mxPoint x="700" y="150" as="sourcePoint" />
            <mxPoint x="780" y="150" as="targetPoint" />
          </mxGeometry>
        </mxCell>
        <mxCell id="vKs0wVmwzbP3PAjMGxUe-40" value="Materi" style="rounded=0;whiteSpace=wrap;html=1;" vertex="1" parent="WIyWlLk6GJQsqaUBKTNV-1">
          <mxGeometry x="780" y="135" width="80" height="30" as="geometry" />
        </mxCell>
        <mxCell id="vKs0wVmwzbP3PAjMGxUe-41" value="" style="endArrow=none;html=1;rounded=0;" edge="1" parent="WIyWlLk6GJQsqaUBKTNV-1" target="vKs0wVmwzbP3PAjMGxUe-42">
          <mxGeometry width="50" height="50" relative="1" as="geometry">
            <mxPoint x="827" y="135" as="sourcePoint" />
            <mxPoint x="860" y="110" as="targetPoint" />
          </mxGeometry>
        </mxCell>
        <mxCell id="vKs0wVmwzbP3PAjMGxUe-42" value="Judul" style="ellipse;whiteSpace=wrap;html=1;" vertex="1" parent="WIyWlLk6GJQsqaUBKTNV-1">
          <mxGeometry x="860" y="90" width="60" height="30" as="geometry" />
        </mxCell>
        <mxCell id="vKs0wVmwzbP3PAjMGxUe-43" value="" style="endArrow=none;html=1;rounded=0;exitX=0.5;exitY=0;exitDx=0;exitDy=0;" edge="1" parent="WIyWlLk6GJQsqaUBKTNV-1" source="vKs0wVmwzbP3PAjMGxUe-40">
          <mxGeometry width="50" height="50" relative="1" as="geometry">
            <mxPoint x="830" y="130" as="sourcePoint" />
            <mxPoint x="870" y="80" as="targetPoint" />
            <Array as="points">
              <mxPoint x="870" y="80" />
            </Array>
          </mxGeometry>
        </mxCell>
        <mxCell id="vKs0wVmwzbP3PAjMGxUe-44" value="ID Materi" style="ellipse;whiteSpace=wrap;html=1;" vertex="1" parent="WIyWlLk6GJQsqaUBKTNV-1">
          <mxGeometry x="860" y="55" width="70" height="30" as="geometry" />
        </mxCell>
        <mxCell id="vKs0wVmwzbP3PAjMGxUe-45" value="" style="endArrow=none;html=1;rounded=0;entryX=0;entryY=1;entryDx=0;entryDy=0;" edge="1" parent="WIyWlLk6GJQsqaUBKTNV-1" target="vKs0wVmwzbP3PAjMGxUe-46">
          <mxGeometry width="50" height="50" relative="1" as="geometry">
            <mxPoint x="810" y="135" as="sourcePoint" />
            <mxPoint x="850" y="50" as="targetPoint" />
          </mxGeometry>
        </mxCell>
        <mxCell id="vKs0wVmwzbP3PAjMGxUe-46" value="&lt;u&gt;ID Mapel&lt;/u&gt;" style="ellipse;whiteSpace=wrap;html=1;" vertex="1" parent="WIyWlLk6GJQsqaUBKTNV-1">
          <mxGeometry x="850" y="20" width="60" height="30" as="geometry" />
        </mxCell>
        <mxCell id="vKs0wVmwzbP3PAjMGxUe-47" value="" style="endArrow=none;html=1;rounded=0;exitX=0.391;exitY=0.057;exitDx=0;exitDy=0;exitPerimeter=0;entryX=0.5;entryY=1;entryDx=0;entryDy=0;" edge="1" parent="WIyWlLk6GJQsqaUBKTNV-1" source="vKs0wVmwzbP3PAjMGxUe-40" target="vKs0wVmwzbP3PAjMGxUe-48">
          <mxGeometry width="50" height="50" relative="1" as="geometry">
            <mxPoint x="810" y="130" as="sourcePoint" />
            <mxPoint x="810" y="40" as="targetPoint" />
          </mxGeometry>
        </mxCell>
        <mxCell id="vKs0wVmwzbP3PAjMGxUe-48" value="Tgl. Upload" style="ellipse;whiteSpace=wrap;html=1;" vertex="1" parent="WIyWlLk6GJQsqaUBKTNV-1">
          <mxGeometry x="770" y="10" width="70" height="30" as="geometry" />
        </mxCell>
        <mxCell id="vKs0wVmwzbP3PAjMGxUe-49" value="" style="endArrow=none;html=1;rounded=0;entryX=0.427;entryY=0.025;entryDx=0;entryDy=0;entryPerimeter=0;" edge="1" parent="WIyWlLk6GJQsqaUBKTNV-1" target="vKs0wVmwzbP3PAjMGxUe-40">
          <mxGeometry width="50" height="50" relative="1" as="geometry">
            <mxPoint x="780" y="80" as="sourcePoint" />
            <mxPoint x="810" y="130" as="targetPoint" />
          </mxGeometry>
        </mxCell>
        <mxCell id="vKs0wVmwzbP3PAjMGxUe-50" value="Deskripsi" style="ellipse;whiteSpace=wrap;html=1;" vertex="1" parent="WIyWlLk6GJQsqaUBKTNV-1">
          <mxGeometry x="730" y="55" width="70" height="30" as="geometry" />
        </mxCell>
        <mxCell id="vKs0wVmwzbP3PAjMGxUe-53" value="m" style="text;html=1;align=center;verticalAlign=middle;whiteSpace=wrap;rounded=0;" vertex="1" parent="WIyWlLk6GJQsqaUBKTNV-1">
          <mxGeometry x="560" y="130" width="60" height="30" as="geometry" />
        </mxCell>
        <mxCell id="vKs0wVmwzbP3PAjMGxUe-54" value="1" style="text;html=1;align=center;verticalAlign=middle;whiteSpace=wrap;rounded=0;" vertex="1" parent="WIyWlLk6GJQsqaUBKTNV-1">
          <mxGeometry x="410" y="130" width="60" height="30" as="geometry" />
        </mxCell>
        <mxCell id="vKs0wVmwzbP3PAjMGxUe-55" value="m" style="text;html=1;align=center;verticalAlign=middle;whiteSpace=wrap;rounded=0;" vertex="1" parent="WIyWlLk6GJQsqaUBKTNV-1">
          <mxGeometry x="710" y="130" width="60" height="30" as="geometry" />
        </mxCell>
        <mxCell id="vKs0wVmwzbP3PAjMGxUe-56" value="" style="endArrow=none;html=1;rounded=0;" edge="1" parent="WIyWlLk6GJQsqaUBKTNV-1" target="vKs0wVmwzbP3PAjMGxUe-57">
          <mxGeometry width="50" height="50" relative="1" as="geometry">
            <mxPoint x="820" y="165" as="sourcePoint" />
            <mxPoint x="820" y="260" as="targetPoint" />
          </mxGeometry>
        </mxCell>
        <mxCell id="vKs0wVmwzbP3PAjMGxUe-57" value="Video" style="ellipse;whiteSpace=wrap;html=1;" vertex="1" parent="WIyWlLk6GJQsqaUBKTNV-1">
          <mxGeometry x="780" y="220" width="80" height="30" as="geometry" />
        </mxCell>
        <mxCell id="vKs0wVmwzbP3PAjMGxUe-58" value="" style="endArrow=none;html=1;rounded=0;exitX=0.35;exitY=0.967;exitDx=0;exitDy=0;exitPerimeter=0;" edge="1" parent="WIyWlLk6GJQsqaUBKTNV-1" source="vKs0wVmwzbP3PAjMGxUe-57" target="vKs0wVmwzbP3PAjMGxUe-59">
          <mxGeometry width="50" height="50" relative="1" as="geometry">
            <mxPoint x="770" y="290" as="sourcePoint" />
            <mxPoint x="820" y="250" as="targetPoint" />
          </mxGeometry>
        </mxCell>
        <mxCell id="vKs0wVmwzbP3PAjMGxUe-59" value="&lt;u&gt;ID Video&lt;/u&gt;" style="ellipse;whiteSpace=wrap;html=1;" vertex="1" parent="WIyWlLk6GJQsqaUBKTNV-1">
          <mxGeometry x="690" y="290" width="80" height="30" as="geometry" />
        </mxCell>
        <mxCell id="vKs0wVmwzbP3PAjMGxUe-60" value="" style="endArrow=none;html=1;rounded=0;entryX=0.5;entryY=1;entryDx=0;entryDy=0;" edge="1" parent="WIyWlLk6GJQsqaUBKTNV-1" target="vKs0wVmwzbP3PAjMGxUe-57">
          <mxGeometry width="50" height="50" relative="1" as="geometry">
            <mxPoint x="790" y="330" as="sourcePoint" />
            <mxPoint x="840" y="280" as="targetPoint" />
          </mxGeometry>
        </mxCell>
        <mxCell id="vKs0wVmwzbP3PAjMGxUe-61" value="Durasi" style="ellipse;whiteSpace=wrap;html=1;" vertex="1" parent="WIyWlLk6GJQsqaUBKTNV-1">
          <mxGeometry x="750" y="320" width="70" height="30" as="geometry" />
        </mxCell>
        <mxCell id="vKs0wVmwzbP3PAjMGxUe-62" value="" style="endArrow=none;html=1;rounded=0;entryX=0.319;entryY=0.011;entryDx=0;entryDy=0;entryPerimeter=0;" edge="1" parent="WIyWlLk6GJQsqaUBKTNV-1" target="vKs0wVmwzbP3PAjMGxUe-63">
          <mxGeometry width="50" height="50" relative="1" as="geometry">
            <mxPoint x="820" y="250" as="sourcePoint" />
            <mxPoint x="840" y="310" as="targetPoint" />
          </mxGeometry>
        </mxCell>
        <mxCell id="vKs0wVmwzbP3PAjMGxUe-63" value="Judul&amp;nbsp;" style="ellipse;whiteSpace=wrap;html=1;" vertex="1" parent="WIyWlLk6GJQsqaUBKTNV-1">
          <mxGeometry x="827" y="340" width="70" height="30" as="geometry" />
        </mxCell>
        <mxCell id="vKs0wVmwzbP3PAjMGxUe-64" value="" style="endArrow=none;html=1;rounded=0;" edge="1" parent="WIyWlLk6GJQsqaUBKTNV-1">
          <mxGeometry width="50" height="50" relative="1" as="geometry">
            <mxPoint x="820" y="250" as="sourcePoint" />
            <mxPoint x="870" y="290" as="targetPoint" />
          </mxGeometry>
        </mxCell>
        <mxCell id="vKs0wVmwzbP3PAjMGxUe-65" value="URL Video" style="ellipse;whiteSpace=wrap;html=1;" vertex="1" parent="WIyWlLk6GJQsqaUBKTNV-1">
          <mxGeometry x="855" y="280" width="70" height="30" as="geometry" />
        </mxCell>
        <mxCell id="vKs0wVmwzbP3PAjMGxUe-66" value="" style="endArrow=none;html=1;rounded=0;exitX=0.5;exitY=0;exitDx=0;exitDy=0;" edge="1" parent="WIyWlLk6GJQsqaUBKTNV-1" source="vKs0wVmwzbP3PAjMGxUe-68">
          <mxGeometry width="50" height="50" relative="1" as="geometry">
            <mxPoint x="650" y="391" as="sourcePoint" />
            <mxPoint x="660" y="160" as="targetPoint" />
          </mxGeometry>
        </mxCell>
        <mxCell id="vKs0wVmwzbP3PAjMGxUe-68" value="Ujian" style="ellipse;whiteSpace=wrap;html=1;" vertex="1" parent="WIyWlLk6GJQsqaUBKTNV-1">
          <mxGeometry x="610" y="400" width="100" height="50" as="geometry" />
        </mxCell>
        <mxCell id="vKs0wVmwzbP3PAjMGxUe-70" value="Judul" style="ellipse;whiteSpace=wrap;html=1;" vertex="1" parent="WIyWlLk6GJQsqaUBKTNV-1">
          <mxGeometry x="530" y="490" width="80" height="30" as="geometry" />
        </mxCell>
        <mxCell id="vKs0wVmwzbP3PAjMGxUe-71" value="" style="endArrow=none;html=1;rounded=0;exitX=0.5;exitY=1;exitDx=0;exitDy=0;entryX=0.4;entryY=0.078;entryDx=0;entryDy=0;entryPerimeter=0;" edge="1" parent="WIyWlLk6GJQsqaUBKTNV-1" source="vKs0wVmwzbP3PAjMGxUe-68" target="vKs0wVmwzbP3PAjMGxUe-72">
          <mxGeometry width="50" height="50" relative="1" as="geometry">
            <mxPoint x="610" y="460" as="sourcePoint" />
            <mxPoint x="650" y="410" as="targetPoint" />
          </mxGeometry>
        </mxCell>
        <mxCell id="vKs0wVmwzbP3PAjMGxUe-72" value="Deskripsi" style="ellipse;whiteSpace=wrap;html=1;" vertex="1" parent="WIyWlLk6GJQsqaUBKTNV-1">
          <mxGeometry x="580" y="530" width="75" height="30" as="geometry" />
        </mxCell>
        <mxCell id="vKs0wVmwzbP3PAjMGxUe-73" value="" style="endArrow=none;html=1;rounded=0;exitX=0.5;exitY=1;exitDx=0;exitDy=0;" edge="1" parent="WIyWlLk6GJQsqaUBKTNV-1" source="vKs0wVmwzbP3PAjMGxUe-68" target="vKs0wVmwzbP3PAjMGxUe-74">
          <mxGeometry width="50" height="50" relative="1" as="geometry">
            <mxPoint x="680" y="460" as="sourcePoint" />
            <mxPoint x="660" y="410" as="targetPoint" />
          </mxGeometry>
        </mxCell>
        <mxCell id="vKs0wVmwzbP3PAjMGxUe-74" value="Tgl. Ujian" style="ellipse;whiteSpace=wrap;html=1;" vertex="1" parent="WIyWlLk6GJQsqaUBKTNV-1">
          <mxGeometry x="655" y="500" width="60" height="30" as="geometry" />
        </mxCell>
        <mxCell id="vKs0wVmwzbP3PAjMGxUe-75" value="" style="endArrow=none;html=1;rounded=0;entryX=0.5;entryY=0;entryDx=0;entryDy=0;exitX=0.726;exitY=0.925;exitDx=0;exitDy=0;exitPerimeter=0;" edge="1" parent="WIyWlLk6GJQsqaUBKTNV-1" source="vKs0wVmwzbP3PAjMGxUe-68" target="vKs0wVmwzbP3PAjMGxUe-76">
          <mxGeometry width="50" height="50" relative="1" as="geometry">
            <mxPoint x="690" y="420" as="sourcePoint" />
            <mxPoint x="720" y="430" as="targetPoint" />
            <Array as="points" />
          </mxGeometry>
        </mxCell>
        <mxCell id="vKs0wVmwzbP3PAjMGxUe-76" value="&lt;u&gt;ID Ujian&lt;/u&gt;" style="ellipse;whiteSpace=wrap;html=1;" vertex="1" parent="WIyWlLk6GJQsqaUBKTNV-1">
          <mxGeometry x="705" y="530" width="60" height="30" as="geometry" />
        </mxCell>
        <mxCell id="vKs0wVmwzbP3PAjMGxUe-80" value="" style="endArrow=none;html=1;rounded=0;entryX=0.621;entryY=0.065;entryDx=0;entryDy=0;entryPerimeter=0;" edge="1" parent="WIyWlLk6GJQsqaUBKTNV-1" target="vKs0wVmwzbP3PAjMGxUe-70">
          <mxGeometry width="50" height="50" relative="1" as="geometry">
            <mxPoint x="650" y="447" as="sourcePoint" />
            <mxPoint x="680" y="330" as="targetPoint" />
          </mxGeometry>
        </mxCell>
        <mxCell id="vKs0wVmwzbP3PAjMGxUe-81" value="" style="endArrow=none;html=1;rounded=0;exitX=1;exitY=0.5;exitDx=0;exitDy=0;" edge="1" parent="WIyWlLk6GJQsqaUBKTNV-1" source="vKs0wVmwzbP3PAjMGxUe-68">
          <mxGeometry width="50" height="50" relative="1" as="geometry">
            <mxPoint x="850" y="380" as="sourcePoint" />
            <mxPoint x="900" y="425" as="targetPoint" />
          </mxGeometry>
        </mxCell>
        <mxCell id="vKs0wVmwzbP3PAjMGxUe-82" value="Soal" style="ellipse;whiteSpace=wrap;html=1;" vertex="1" parent="WIyWlLk6GJQsqaUBKTNV-1">
          <mxGeometry x="897" y="400" width="100" height="50" as="geometry" />
        </mxCell>
        <mxCell id="vKs0wVmwzbP3PAjMGxUe-83" value="&lt;u&gt;Pertanyaan&lt;/u&gt;" style="ellipse;whiteSpace=wrap;html=1;" vertex="1" parent="WIyWlLk6GJQsqaUBKTNV-1">
          <mxGeometry x="810" y="520" width="80" height="30" as="geometry" />
        </mxCell>
        <mxCell id="vKs0wVmwzbP3PAjMGxUe-84" value="Opsi A" style="ellipse;whiteSpace=wrap;html=1;" vertex="1" parent="WIyWlLk6GJQsqaUBKTNV-1">
          <mxGeometry x="870" y="555" width="60" height="30" as="geometry" />
        </mxCell>
        <mxCell id="vKs0wVmwzbP3PAjMGxUe-85" value="Opsi B&amp;nbsp;" style="ellipse;whiteSpace=wrap;html=1;" vertex="1" parent="WIyWlLk6GJQsqaUBKTNV-1">
          <mxGeometry x="912" y="585" width="68" height="25" as="geometry" />
        </mxCell>
        <mxCell id="vKs0wVmwzbP3PAjMGxUe-86" value="Opsi C" style="ellipse;whiteSpace=wrap;html=1;" vertex="1" parent="WIyWlLk6GJQsqaUBKTNV-1">
          <mxGeometry x="970" y="560" width="60" height="30" as="geometry" />
        </mxCell>
        <mxCell id="vKs0wVmwzbP3PAjMGxUe-87" value="Opsi D" style="ellipse;whiteSpace=wrap;html=1;" vertex="1" parent="WIyWlLk6GJQsqaUBKTNV-1">
          <mxGeometry x="997" y="520" width="74" height="30" as="geometry" />
        </mxCell>
        <mxCell id="vKs0wVmwzbP3PAjMGxUe-88" value="" style="endArrow=none;html=1;rounded=0;exitX=0.5;exitY=1;exitDx=0;exitDy=0;entryX=0.5;entryY=0;entryDx=0;entryDy=0;" edge="1" parent="WIyWlLk6GJQsqaUBKTNV-1" source="vKs0wVmwzbP3PAjMGxUe-82" target="vKs0wVmwzbP3PAjMGxUe-83">
          <mxGeometry width="50" height="50" relative="1" as="geometry">
            <mxPoint x="770" y="300" as="sourcePoint" />
            <mxPoint x="820" y="250" as="targetPoint" />
          </mxGeometry>
        </mxCell>
        <mxCell id="vKs0wVmwzbP3PAjMGxUe-89" value="" style="endArrow=none;html=1;rounded=0;exitX=0.5;exitY=1;exitDx=0;exitDy=0;entryX=0.5;entryY=0;entryDx=0;entryDy=0;" edge="1" parent="WIyWlLk6GJQsqaUBKTNV-1" source="vKs0wVmwzbP3PAjMGxUe-82" target="vKs0wVmwzbP3PAjMGxUe-84">
          <mxGeometry width="50" height="50" relative="1" as="geometry">
            <mxPoint x="770" y="300" as="sourcePoint" />
            <mxPoint x="820" y="250" as="targetPoint" />
          </mxGeometry>
        </mxCell>
        <mxCell id="vKs0wVmwzbP3PAjMGxUe-90" value="" style="endArrow=none;html=1;rounded=0;entryX=0.5;entryY=0;entryDx=0;entryDy=0;" edge="1" parent="WIyWlLk6GJQsqaUBKTNV-1" target="vKs0wVmwzbP3PAjMGxUe-85">
          <mxGeometry width="50" height="50" relative="1" as="geometry">
            <mxPoint x="950" y="450" as="sourcePoint" />
            <mxPoint x="820" y="290" as="targetPoint" />
          </mxGeometry>
        </mxCell>
        <mxCell id="vKs0wVmwzbP3PAjMGxUe-91" value="" style="endArrow=none;html=1;rounded=0;exitX=0.5;exitY=1;exitDx=0;exitDy=0;entryX=0;entryY=0;entryDx=0;entryDy=0;" edge="1" parent="WIyWlLk6GJQsqaUBKTNV-1" source="vKs0wVmwzbP3PAjMGxUe-82" target="vKs0wVmwzbP3PAjMGxUe-86">
          <mxGeometry width="50" height="50" relative="1" as="geometry">
            <mxPoint x="770" y="340" as="sourcePoint" />
            <mxPoint x="820" y="290" as="targetPoint" />
          </mxGeometry>
        </mxCell>
        <mxCell id="vKs0wVmwzbP3PAjMGxUe-92" value="" style="endArrow=none;html=1;rounded=0;entryX=0;entryY=0;entryDx=0;entryDy=0;" edge="1" parent="WIyWlLk6GJQsqaUBKTNV-1" target="vKs0wVmwzbP3PAjMGxUe-87">
          <mxGeometry width="50" height="50" relative="1" as="geometry">
            <mxPoint x="950" y="450" as="sourcePoint" />
            <mxPoint x="820" y="290" as="targetPoint" />
          </mxGeometry>
        </mxCell>
        <mxCell id="vKs0wVmwzbP3PAjMGxUe-94" value="" style="endArrow=none;html=1;rounded=0;entryX=0;entryY=0.5;entryDx=0;entryDy=0;" edge="1" parent="WIyWlLk6GJQsqaUBKTNV-1" source="vKs0wVmwzbP3PAjMGxUe-95" target="vKs0wVmwzbP3PAjMGxUe-68">
          <mxGeometry width="50" height="50" relative="1" as="geometry">
            <mxPoint x="370" y="425" as="sourcePoint" />
            <mxPoint x="600" y="320" as="targetPoint" />
          </mxGeometry>
        </mxCell>
        <mxCell id="vKs0wVmwzbP3PAjMGxUe-96" value="" style="endArrow=none;html=1;rounded=0;entryX=0;entryY=0.5;entryDx=0;entryDy=0;" edge="1" parent="WIyWlLk6GJQsqaUBKTNV-1" target="vKs0wVmwzbP3PAjMGxUe-95">
          <mxGeometry width="50" height="50" relative="1" as="geometry">
            <mxPoint x="370" y="425" as="sourcePoint" />
            <mxPoint x="610" y="425" as="targetPoint" />
          </mxGeometry>
        </mxCell>
        <mxCell id="vKs0wVmwzbP3PAjMGxUe-95" value="Hasil Ujian" style="ellipse;whiteSpace=wrap;html=1;" vertex="1" parent="WIyWlLk6GJQsqaUBKTNV-1">
          <mxGeometry x="329" y="400" width="110" height="50" as="geometry" />
        </mxCell>
        <mxCell id="vKs0wVmwzbP3PAjMGxUe-97" value="" style="endArrow=none;html=1;rounded=0;exitX=0.5;exitY=1;exitDx=0;exitDy=0;" edge="1" parent="WIyWlLk6GJQsqaUBKTNV-1" source="vKs0wVmwzbP3PAjMGxUe-95" target="vKs0wVmwzbP3PAjMGxUe-98">
          <mxGeometry width="50" height="50" relative="1" as="geometry">
            <mxPoint x="550" y="370" as="sourcePoint" />
            <mxPoint x="600" y="320" as="targetPoint" />
            <Array as="points" />
          </mxGeometry>
        </mxCell>
        <mxCell id="vKs0wVmwzbP3PAjMGxUe-98" value="Skor" style="ellipse;whiteSpace=wrap;html=1;" vertex="1" parent="WIyWlLk6GJQsqaUBKTNV-1">
          <mxGeometry x="259" y="510" width="71" height="30" as="geometry" />
        </mxCell>
        <mxCell id="vKs0wVmwzbP3PAjMGxUe-99" value="Tgl. Ujian" style="ellipse;whiteSpace=wrap;html=1;" vertex="1" parent="WIyWlLk6GJQsqaUBKTNV-1">
          <mxGeometry x="340" y="530" width="80" height="30" as="geometry" />
        </mxCell>
        <mxCell id="vKs0wVmwzbP3PAjMGxUe-100" value="&lt;u&gt;ID Hasil&lt;/u&gt;" style="ellipse;whiteSpace=wrap;html=1;" vertex="1" parent="WIyWlLk6GJQsqaUBKTNV-1">
          <mxGeometry x="410" y="500" width="70" height="30" as="geometry" />
        </mxCell>
        <mxCell id="vKs0wVmwzbP3PAjMGxUe-102" value="" style="endArrow=none;html=1;rounded=0;exitX=0.5;exitY=0;exitDx=0;exitDy=0;entryX=0.5;entryY=1;entryDx=0;entryDy=0;" edge="1" parent="WIyWlLk6GJQsqaUBKTNV-1" source="vKs0wVmwzbP3PAjMGxUe-99" target="vKs0wVmwzbP3PAjMGxUe-95">
          <mxGeometry width="50" height="50" relative="1" as="geometry">
            <mxPoint x="550" y="370" as="sourcePoint" />
            <mxPoint x="600" y="320" as="targetPoint" />
          </mxGeometry>
        </mxCell>
        <mxCell id="vKs0wVmwzbP3PAjMGxUe-103" value="" style="endArrow=none;html=1;rounded=0;exitX=0.5;exitY=1;exitDx=0;exitDy=0;entryX=0.5;entryY=0;entryDx=0;entryDy=0;" edge="1" parent="WIyWlLk6GJQsqaUBKTNV-1" source="vKs0wVmwzbP3PAjMGxUe-95" target="vKs0wVmwzbP3PAjMGxUe-100">
          <mxGeometry width="50" height="50" relative="1" as="geometry">
            <mxPoint x="550" y="370" as="sourcePoint" />
            <mxPoint x="600" y="320" as="targetPoint" />
          </mxGeometry>
        </mxCell>
        <mxCell id="vKs0wVmwzbP3PAjMGxUe-104" value="" style="endArrow=none;html=1;rounded=0;exitX=1;exitY=0.5;exitDx=0;exitDy=0;" edge="1" parent="WIyWlLk6GJQsqaUBKTNV-1" source="vKs0wVmwzbP3PAjMGxUe-40">
          <mxGeometry width="50" height="50" relative="1" as="geometry">
            <mxPoint x="580" y="270" as="sourcePoint" />
            <mxPoint x="1000" y="150" as="targetPoint" />
          </mxGeometry>
        </mxCell>
        <mxCell id="vKs0wVmwzbP3PAjMGxUe-106" value="Feedback" style="ellipse;whiteSpace=wrap;html=1;" vertex="1" parent="WIyWlLk6GJQsqaUBKTNV-1">
          <mxGeometry x="997" y="130" width="103" height="40" as="geometry" />
        </mxCell>
        <mxCell id="vKs0wVmwzbP3PAjMGxUe-107" value="Rating" style="ellipse;whiteSpace=wrap;html=1;" vertex="1" parent="WIyWlLk6GJQsqaUBKTNV-1">
          <mxGeometry x="950" y="220" width="70" height="30" as="geometry" />
        </mxCell>
        <mxCell id="vKs0wVmwzbP3PAjMGxUe-108" value="&lt;u&gt;Komentar&lt;/u&gt;" style="ellipse;whiteSpace=wrap;html=1;" vertex="1" parent="WIyWlLk6GJQsqaUBKTNV-1">
          <mxGeometry x="997" y="260" width="69" height="30" as="geometry" />
        </mxCell>
        <mxCell id="vKs0wVmwzbP3PAjMGxUe-109" value="Tgl. Feedback" style="ellipse;whiteSpace=wrap;html=1;" vertex="1" parent="WIyWlLk6GJQsqaUBKTNV-1">
          <mxGeometry x="1050" y="230" width="70" height="30" as="geometry" />
        </mxCell>
        <mxCell id="vKs0wVmwzbP3PAjMGxUe-111" value="" style="endArrow=none;html=1;rounded=0;exitX=0.5;exitY=1;exitDx=0;exitDy=0;entryX=0.5;entryY=0;entryDx=0;entryDy=0;" edge="1" parent="WIyWlLk6GJQsqaUBKTNV-1" source="vKs0wVmwzbP3PAjMGxUe-106" target="vKs0wVmwzbP3PAjMGxUe-107">
          <mxGeometry width="50" height="50" relative="1" as="geometry">
            <mxPoint x="580" y="270" as="sourcePoint" />
            <mxPoint x="630" y="220" as="targetPoint" />
          </mxGeometry>
        </mxCell>
        <mxCell id="vKs0wVmwzbP3PAjMGxUe-112" value="" style="endArrow=none;html=1;rounded=0;entryX=0.5;entryY=0;entryDx=0;entryDy=0;" edge="1" parent="WIyWlLk6GJQsqaUBKTNV-1" target="vKs0wVmwzbP3PAjMGxUe-108">
          <mxGeometry width="50" height="50" relative="1" as="geometry">
            <mxPoint x="1050" y="170" as="sourcePoint" />
            <mxPoint x="630" y="220" as="targetPoint" />
          </mxGeometry>
        </mxCell>
        <mxCell id="vKs0wVmwzbP3PAjMGxUe-113" value="" style="endArrow=none;html=1;rounded=0;entryX=0.5;entryY=0;entryDx=0;entryDy=0;" edge="1" parent="WIyWlLk6GJQsqaUBKTNV-1" target="vKs0wVmwzbP3PAjMGxUe-109">
          <mxGeometry width="50" height="50" relative="1" as="geometry">
            <mxPoint x="1050" y="170" as="sourcePoint" />
            <mxPoint x="630" y="220" as="targetPoint" />
          </mxGeometry>
        </mxCell>
        <mxCell id="vKs0wVmwzbP3PAjMGxUe-114" value="" style="endArrow=none;html=1;rounded=0;exitX=0.5;exitY=1;exitDx=0;exitDy=0;" edge="1" parent="WIyWlLk6GJQsqaUBKTNV-1" source="vKs0wVmwzbP3PAjMGxUe-2">
          <mxGeometry width="50" height="50" relative="1" as="geometry">
            <mxPoint x="580" y="270" as="sourcePoint" />
            <mxPoint x="345" y="230" as="targetPoint" />
          </mxGeometry>
        </mxCell>
        <mxCell id="vKs0wVmwzbP3PAjMGxUe-115" value="Menerima" style="rhombus;whiteSpace=wrap;html=1;" vertex="1" parent="WIyWlLk6GJQsqaUBKTNV-1">
          <mxGeometry x="302.5" y="230" width="85" height="110" as="geometry" />
        </mxCell>
        <mxCell id="vKs0wVmwzbP3PAjMGxUe-117" value="Notifikasi" style="ellipse;whiteSpace=wrap;html=1;" vertex="1" parent="WIyWlLk6GJQsqaUBKTNV-1">
          <mxGeometry x="120" y="265" width="110" height="40" as="geometry" />
        </mxCell>
        <mxCell id="vKs0wVmwzbP3PAjMGxUe-118" value="" style="endArrow=none;html=1;rounded=0;exitX=0.5;exitY=1;exitDx=0;exitDy=0;" edge="1" parent="WIyWlLk6GJQsqaUBKTNV-1" source="vKs0wVmwzbP3PAjMGxUe-117">
          <mxGeometry width="50" height="50" relative="1" as="geometry">
            <mxPoint x="340" y="270" as="sourcePoint" />
            <mxPoint x="220" y="340" as="targetPoint" />
          </mxGeometry>
        </mxCell>
        <mxCell id="vKs0wVmwzbP3PAjMGxUe-119" value="&lt;u&gt;Isi Notifikasi&lt;/u&gt;" style="ellipse;whiteSpace=wrap;html=1;" vertex="1" parent="WIyWlLk6GJQsqaUBKTNV-1">
          <mxGeometry x="205" y="335" width="110" height="40" as="geometry" />
        </mxCell>
        <mxCell id="vKs0wVmwzbP3PAjMGxUe-120" value="" style="endArrow=none;html=1;rounded=0;entryX=0.5;entryY=1;entryDx=0;entryDy=0;" edge="1" parent="WIyWlLk6GJQsqaUBKTNV-1" target="vKs0wVmwzbP3PAjMGxUe-117">
          <mxGeometry width="50" height="50" relative="1" as="geometry">
            <mxPoint x="175" y="370" as="sourcePoint" />
            <mxPoint x="170" y="300" as="targetPoint" />
          </mxGeometry>
        </mxCell>
        <mxCell id="vKs0wVmwzbP3PAjMGxUe-121" value="Tgl. Notifikasi" style="ellipse;whiteSpace=wrap;html=1;" vertex="1" parent="WIyWlLk6GJQsqaUBKTNV-1">
          <mxGeometry x="140" y="370" width="90" height="40" as="geometry" />
        </mxCell>
        <mxCell id="vKs0wVmwzbP3PAjMGxUe-122" value="" style="endArrow=none;html=1;rounded=0;entryX=0.5;entryY=1;entryDx=0;entryDy=0;" edge="1" parent="WIyWlLk6GJQsqaUBKTNV-1" target="vKs0wVmwzbP3PAjMGxUe-117">
          <mxGeometry width="50" height="50" relative="1" as="geometry">
            <mxPoint x="130" y="350" as="sourcePoint" />
            <mxPoint x="170" y="310" as="targetPoint" />
          </mxGeometry>
        </mxCell>
        <mxCell id="vKs0wVmwzbP3PAjMGxUe-123" value="Status" style="ellipse;whiteSpace=wrap;html=1;" vertex="1" parent="WIyWlLk6GJQsqaUBKTNV-1">
          <mxGeometry x="60" y="330" width="90" height="40" as="geometry" />
        </mxCell>
        <mxCell id="vKs0wVmwzbP3PAjMGxUe-125" value="" style="endArrow=none;html=1;rounded=0;exitX=0;exitY=0.5;exitDx=0;exitDy=0;entryX=1;entryY=0.5;entryDx=0;entryDy=0;" edge="1" parent="WIyWlLk6GJQsqaUBKTNV-1" source="vKs0wVmwzbP3PAjMGxUe-115" target="vKs0wVmwzbP3PAjMGxUe-117">
          <mxGeometry width="50" height="50" relative="1" as="geometry">
            <mxPoint x="303" y="285" as="sourcePoint" />
            <mxPoint x="290" y="282.05882352941217" as="targetPoint" />
          </mxGeometry>
        </mxCell>
        <mxCell id="vKs0wVmwzbP3PAjMGxUe-128" value="Nama : Aurora Yulia Safa&lt;div&gt;Kelas : X SIJA 2 / 8&lt;/div&gt;" style="text;html=1;align=center;verticalAlign=middle;whiteSpace=wrap;rounded=0;" vertex="1" parent="WIyWlLk6GJQsqaUBKTNV-1">
          <mxGeometry x="820" y="-110" width="230" height="30" as="geometry" />
        </mxCell>
        <mxCell id="vKs0wVmwzbP3PAjMGxUe-130" value="WEB Pendidikan Ruangguru" style="text;html=1;align=center;verticalAlign=middle;whiteSpace=wrap;rounded=0;" vertex="1" parent="WIyWlLk6GJQsqaUBKTNV-1">
          <mxGeometry x="870" y="-150" width="120" height="20" as="geometry" />
        </mxCell>
        <mxCell id="vKs0wVmwzbP3PAjMGxUe-131" value="m" style="text;html=1;align=center;verticalAlign=middle;whiteSpace=wrap;rounded=0;" vertex="1" parent="WIyWlLk6GJQsqaUBKTNV-1">
          <mxGeometry x="230" y="260" width="60" height="30" as="geometry" />
        </mxCell>
      </root>
    </mxGraphModel>
  </diagram>
</mxfile>
